<svg version="1.2" xmlns="http://www.w3.org/2000/svg" viewBox="0 0 11 11" width="11" height="11"><style>.s0{fill:#636363}</style><path class="s0" d="m6.5 5.8l-5.1 5.2q-0.2 0.1-0.3 0.1q-0.1 0-0.3-0.1l-0.5-0.6q-0.1-0.1-0.1-0.2q0-0.2 0.1-0.3l4.3-4.3l-4.3-4.3q-0.1-0.2-0.1-0.3q0-0.1 0.1-0.3l0.5-0.5q0.2-0.1 0.3-0.1q0.1 0 0.3 0.1l5.1 5.1q0.1 0.1 0.1 0.3q0 0.1-0.1 0.2zm4.3-0.2q0-0.2-0.1-0.3l-5.1-5.1q-0.1-0.1-0.3-0.1q-0.1 0-0.2 0.1l-0.6 0.5q-0.1 0.2-0.1 0.3q0 0.1 0.1 0.3l4.3 4.3l-4.3 4.3q-0.1 0.1-0.1 0.3q0 0.1 0.1 0.2l0.6 0.6q0.1 0.1 0.2 0.1q0.2 0 0.3-0.1l5.1-5.2q0.1-0.1 0.1-0.2z" /></svg>